<svg xmlns="http://www.w3.org/2000/svg" xmlns:xlink="http://www.w3.org/1999/xlink" viewBox="0,0,256,256" width="50px" height="50px"><g fill="#e9e9e9" fill-rule="nonzero" stroke="none" stroke-width="1" stroke-linecap="butt" stroke-linejoin="miter" stroke-miterlimit="10" stroke-dasharray="" stroke-dashoffset="0" font-family="none" font-weight="none" font-size="none" text-anchor="none" style="mix-blend-mode: normal"><g transform="scale(5.12,5.12)"><path d="M27,3c-0.2652,0.00005 -0.51952,0.10543 -0.70703,0.29297l-21,21c-0.39037,0.39053 -0.39037,1.02353 0,1.41406l6,6c0.39053,0.39037 1.02353,0.39037 1.41406,0l27,-27c0.28583,-0.28603 0.37129,-0.71604 0.21656,-1.08963c-0.15474,-0.37359 -0.51922,-0.61724 -0.92359,-0.6174zM27.41406,5h9.17188l-24.58594,24.58594l-4.58594,-4.58594zM28,22c-0.2652,0.00005 -0.51952,0.10543 -0.70703,0.29297l-12,12c-0.39037,0.39053 -0.39037,1.02353 0,1.41406l6,6l6,6c0.18751,0.18754 0.44183,0.29292 0.70703,0.29297h12c0.40437,-0.00016 0.76885,-0.24381 0.92359,-0.6174c0.15474,-0.37359 0.06927,-0.8036 -0.21656,-1.08963l-11.29297,-11.29297l11.29297,-11.29297c0.28583,-0.28603 0.37129,-0.71604 0.21656,-1.08963c-0.15474,-0.37359 -0.51922,-0.61724 -0.92359,-0.6174zM28.41406,24h9.17188l-15.58594,15.58594l-4.58594,-4.58594zM28,36.41406l9.58594,9.58594h-9.17188l-5,-5z"></path></g></g></svg>